<svg width="1200" height="1200" xmlns="http://www.w3.org/2000/svg" xmlns:xlink="http://www.w3.org/1999/xlink" version="1.1"><g transform="scale(26.536929347869386) translate(-1.3899989657931857, -1.389998012118868)">            <linearGradient id="SvgjsLinearGradient1013"><stop id="SvgjsStop1014" stop-color="#00ddff" offset="0"/><stop id="SvgjsStop1015" stop-color="#ff00d4" offset="1"/></linearGradient>            <g fill="url(#SvgjsLinearGradient1013)"><linearGradient id="SvgjsLinearGradient1013"><stop id="SvgjsStop1014" stop-color="#00ddff" offset="0"/><stop id="SvgjsStop1015" stop-color="#ff00d4" offset="1"/></linearGradient><g xmlns="http://www.w3.org/2000/svg"><path d="m 24.112942,13.114742 c -6.038782,0 -10.93933,4.894703 -10.93933,10.933484 0,6.035852 4.900548,10.933476 10.93933,10.933476 6.038773,0 10.925685,-4.897624 10.925685,-10.933476 -9.7e-4,-6.038781 -4.886912,-10.933484 -10.925685,-10.933484 z M 18.52108,26.470744 h 2.841201 c -0.01457,0.70787 0.183058,1.292077 0.582269,1.760416 0.399209,0.465424 0.918181,0.76142 1.560811,0.881185 v -4.184889 c -0.0399,-0.01456 -0.254132,-0.06813 -0.64166,-0.180127 -1.252153,-0.331057 -2.17326,-0.733187 -2.759412,-1.197628 -0.825688,-0.656267 -1.242424,-1.586132 -1.242424,-2.783759 0,-1.294998 0.475162,-2.335871 1.421576,-3.120652 0.853922,-0.69619 1.926923,-1.083709 3.22192,-1.16063 v -1.544264 h 1.181071 v 1.543288 c 1.280394,0.145075 2.30763,0.54526 3.080739,1.197627 0.870472,0.736102 1.340757,1.757502 1.420601,3.063203 H 26.349486 C 26.331926,20.210937 26.166436,19.7572 25.844148,19.381364 25.524773,19.013308 25.1392,18.82539 24.686432,18.82539 v 3.540311 c 0.214214,0.05457 0.553052,0.140205 1.021401,0.259971 1.705888,0.465418 2.860675,1.209318 3.460466,2.224863 0.347606,0.595896 0.52189,1.405997 0.52189,2.42155 0,0.835419 -0.333971,1.645526 -1.000942,2.415706 -0.921107,1.061312 -2.253104,1.643579 -4.001837,1.76529 v 1.700045 H 23.506332 V 31.454051 C 20.47526,31.222318 18.815129,29.56511 18.52108,26.470744 z m 4.984281,-4.381574 v -3.26378 c -0.479049,0 -0.901631,0.142161 -1.260918,0.439131 -0.359288,0.294047 -0.539425,0.702025 -0.539425,1.221 0,0.439131 0.13437,0.778946 0.407978,1.02139 0.273599,0.239524 0.739024,0.433286 1.392365,0.582259 z m 1.180104,3.177133 v 3.845072 c 0.573501,-0.05746 1.055466,-0.233686 1.440071,-0.542345 0.479053,-0.36221 0.721499,-0.832497 0.721499,-1.420601 0,-0.518975 -0.153842,-0.907471 -0.462495,-1.157706 -0.303794,-0.256081 -0.874372,-0.492689 -1.699075,-0.72442 z m 19.663514,9.710531 -1.890893,-1.272603 c -5.365958,7.975433 -18.564226,6.554834 -18.564226,6.554834 0,0 13.127186,-1.846104 13.835055,-9.738772 l -1.862654,-1.252161 8.42917,-3.368942 0.05357,9.077644 z M 3.6509991,13.020294 5.5448117,14.292897 C 10.910779,6.3203858 24.106118,7.7409883 24.106118,7.7409883 c 0,0 -13.124263,1.846102 -13.834078,9.7358547 l 1.8646,1.252154 -8.4291678,3.371864 -0.056471,-9.080567 z"/></g></g>        </g></svg>