<svg viewBox="0 0 370 89.91908215102903" preserveAspectRatio="xMidYMid meet" class="css-8aabad" id="ffbehfch" xmlns="http://www.w3.org/2000/svg"><defs id="SvgjsDefs3550"></defs><g id="SvgjsG3551" featurekey="symbolFeature-0" transform="matrix(1.0993360386747009,0,0,1.0993360386747009,-6.473989864657167,-11.572211906348096)" fill="#fff"><g xmlns="http://www.w3.org/2000/svg"><path d="M49.385,74.792c-2.5,9.419-7.995,16.102-15.017,16.886C23.447,92.898,12.976,79.4,10.98,61.53s5.238-33.346,16.159-34.566   c9.969-1.113,19.558,10.039,22.673,25.584c0.167-0.522,0.383-1.018,0.655-1.476C47.165,35.004,37.218,23.51,26.883,24.665   C15.498,25.937,7.956,42.069,10.037,60.699c2.081,18.628,12.997,32.7,24.381,31.428c7.008-0.782,12.555-7.201,15.303-16.361   C49.6,75.446,49.486,75.121,49.385,74.792z"></path><ellipse transform="matrix(-0.208 -0.9781 0.9781 -0.208 -37.1921 125.0671)" cx="32.036" cy="77.59" rx="10.143" ry="5.531"></ellipse><path d="M89.553,62.388C86.23,80.836,74.398,94.146,63.125,92.116c-11.273-2.03-17.721-18.632-14.398-37.08   c3.322-18.448,15.154-31.758,26.428-29.728C86.428,27.338,92.875,43.939,89.553,62.388z M74.746,27.585   C63.93,25.638,52.58,38.405,49.393,56.102C46.206,73.798,52.39,89.723,63.205,91.67c10.814,1.948,22.166-10.819,25.352-28.516   C91.743,45.457,85.559,29.532,74.746,27.585z M68.584,67.592c-3.011-0.513-6.214,3.548-7.155,9.07   c-0.94,5.522,0.739,10.415,3.75,10.927s6.214-3.548,7.155-9.071C73.275,72.997,71.596,68.104,68.584,67.592z"></path><g><path d="M5.889,24.585c1.037-3.707,3.521-6.898,6.603-9.343c3.108-2.437,6.981-4.04,10.975-4.53    c3.998-0.513,8.044,0.064,11.661,1.413c3.62,1.366,6.878,3.429,9.479,6.217c-3.765-0.576-7.222-1.279-10.605-1.636    c-3.373-0.377-6.627-0.436-9.788-0.043c-3.161,0.392-6.235,1.246-9.265,2.587C11.914,20.597,8.939,22.353,5.889,24.585z"></path></g><g><path d="M58.064,19.812c2.112-3.218,5.447-5.506,9.125-6.901c3.701-1.379,7.878-1.733,11.833-0.989    c3.965,0.723,7.646,2.5,10.683,4.881c3.036,2.399,5.515,5.353,7.148,8.799c-3.414-1.69-6.494-3.408-9.609-4.774    c-3.1-1.382-6.184-2.425-9.314-3.009c-3.131-0.585-6.32-0.703-9.613-0.344C65.016,17.838,61.648,18.609,58.064,19.812z"></path></g></g></g><g id="SvgjsG3552" featurekey="nameFeature-0" transform="matrix(1.4740565507256653,0,0,1.4740565507256653,120,-11.09433733627617)" fill="#fff"><path d="M9.52 10.24 c7.92 0 9.48 2.96 9.48 9.04 l0 12.04 c0 6.08 -2.32 8.68 -9.48 8.68 c-7.28 0 -9.52 -2.68 -9.52 -8.68 l0 -12.04 c0 -5.96 2.36 -9.04 9.52 -9.04 z M14 27.2 l0 -4.28 c0 -2.2 -0.68 -3.24 -4 -3.24 c-3 0 -3.96 1.08 -3.96 3.24 l0 4.28 c0 2.12 0.92 3.08 3.96 3.08 c3 0 4 -0.92 4 -3.08 z M25.2 18.52 l0 -8.28 l15.48 0 l0 24.48 c0 6.28 -2.44 8.96 -9.84 8.96 c-7.52 0 -9.84 -2.8 -9.84 -8.96 l0 -2.72 l7.16 0 c0.04 2.76 0.8 4 3.12 4 c2.36 0 3.12 -1.28 3.12 -4.28 l0 -13.2 l-9.2 0 z M52.2 10.24 c7.92 0 9.48 2.96 9.48 9.04 l0 12.04 c0 6.08 -2.32 8.68 -9.48 8.68 c-7.28 0 -9.52 -2.68 -9.52 -8.68 l0 -12.04 c0 -5.96 2.36 -9.04 9.52 -9.04 z M56.68 27.2 l0 -4.28 c0 -2.2 -0.68 -3.24 -4 -3.24 c-3 0 -3.96 1.08 -3.96 3.24 l0 4.28 c0 2.12 0.92 3.08 3.96 3.08 c3 0 4 -0.92 4 -3.08 z M89.32 25.44 c0.68 0.48 1.12 1.2 1.12 2.28 l0 7 c0 3.72 -2.16 5.28 -8.76 5.28 c-6.72 0 -8.8 -1.64 -8.8 -5.28 l0 -4.36 l5.92 0 l0 1.2 c0 0.96 0.72 1.4 3.04 1.4 c2.28 0 3.04 -0.44 3.04 -1.4 l0 -1.96 c0 -0.6 -0.2 -1 -0.96 -1.24 c-0.32 -0.08 -0.64 -0.12 -1 -0.12 c-0.48 0.04 -2.32 0.04 -2.68 0.04 l0 0 c-4.2 -0.16 -6.24 -1.12 -7 -3.04 c-0.24 -0.64 -0.36 -1.36 -0.36 -2.2 l0 -7.32 c0 -3.6 2.08 -5.48 8.44 -5.48 c7.04 0 8.44 1.8 8.44 5.48 l0 6.04 l-5.76 0 l0 -3.2 c0 -1.76 -0.36 -2.6 -2.08 -2.6 c-1.6 0 -2.08 0.88 -2.08 2.6 l0 3.44 l0 0 c0 0.2 0.2 2.44 2.6 2.44 c1.76 0 5.12 -0.24 6.88 1 z M103.96 30.52 c0 -0.16 0.04 -18.08 0.04 -18.08 l6.28 0 l0 18.88 c0 6.08 -2.2 8.68 -8.92 8.68 c-6.8 0 -8.92 -2.68 -8.92 -8.68 l0 -21.08 l7.44 0 l0 20.24 c0.08 2.84 4.04 2.88 4.08 0.04 z M121.44 10.24 c7.36 0 8.8 2 8.8 6.08 l0 8.12 c0 4.08 -2.16 5.84 -8.8 5.84 c-0.84 0 -1.64 -0.04 -2.32 -0.08 l0 9.8 l-6.84 0 l0 -29.76 l9.16 0 z M123 22.48 l0 -3.4 c0 -1.68 -0.4 -2.52 -2.56 -2.52 c-0.56 0 -1 0.04 -1.32 0.2 l0 8 c0.32 0.12 0.76 0.16 1.32 0.16 c1.92 0 2.56 -0.72 2.56 -2.44 z M132.24 40 l0 -29.76 l17.32 0 l0 8.36 l-10.48 0 l0 3.68 l8.6 0 l0 5.96 l-8.6 0 l0 3.4 l10.48 0 l0 8.36 l-17.24 0 l-0.08 0 z M162.12 31.48 c-0.16 -0.2 -0.36 -0.28 -0.56 -0.28 l-3.16 0 l0 7.32 l-6.84 0 l0 -28.28 l9.24 0 c7.36 0 8.8 1.76 8.8 5.36 l0 7.12 c0 3.12 -2.4 3.64 -4.24 4.16 c1.84 1.12 4.04 1.8 4.04 5.76 l-0.12 7.36 l-6.84 0 l0.08 -7.44 c0 -0.44 -0.12 -0.84 -0.4 -1.08 z M158.4 23 c0.36 0.12 0.8 0.16 1.36 0.16 c1.96 0 2.6 -0.64 2.6 -2.16 l0 -2.96 c0 -1.52 -0.44 -2.24 -2.6 -2.24 c-0.56 0 -1 0.04 -1.36 0.16 l0 7.04 z"></path></g><g id="SvgjsG3553" featurekey="sloganFeature-0" transform="matrix(0.9111671676584532,0,0,0.9111671676584532,118.86104147490529,67.53299699404928)" fill="#fff"><path d="M6.45 18.25 c1.06 0 1.92 -0.44 2.5 -1.18 c0.12 -0.15 0.24 -0.18 0.4 -0.08 l1.15 0.67 c0.16 0.1 0.22 0.24 0.1 0.4 c-0.86 1.32 -2.38 2.2 -4.19 2.2 c-2.98 0 -5.16 -2.23 -5.16 -5.14 s2.18 -5.14 5.16 -5.14 c1.81 0 3.33 0.88 4.19 2.2 c0.12 0.16 0.06 0.3 -0.1 0.4 l-1.15 0.67 c-0.16 0.1 -0.28 0.07 -0.4 -0.08 c-0.58 -0.74 -1.44 -1.19 -2.5 -1.19 c-1.78 0 -3.1 1.28 -3.1 3.14 s1.32 3.13 3.1 3.13 z M28.4435 20.26 c-2.85 0 -5.15 -2.26 -5.15 -5.14 c0 -2.87 2.3 -5.14 5.15 -5.14 c2.84 0 5.14 2.27 5.14 5.14 c0 2.88 -2.3 5.14 -5.14 5.14 z M28.4435 18.25 c1.72 0 3.05 -1.4 3.05 -3.13 c0 -1.72 -1.33 -3.14 -3.05 -3.14 c-1.73 0 -3.06 1.42 -3.06 3.14 c0 1.73 1.33 3.13 3.06 3.13 z M52.327 9.98 c2.09 0 3.54 1.42 3.54 4.04 l0 5.68 c0 0.18 -0.12 0.3 -0.3 0.3 l-1.56 0 c-0.18 0 -0.3 -0.12 -0.3 -0.3 l0 -5.36 c0 -1.67 -0.86 -2.37 -2.17 -2.37 c-1.9 0 -2.72 1.64 -2.72 2.08 l0 5.65 c0 0.18 -0.12 0.3 -0.3 0.3 l-1.56 0 c-0.18 0 -0.3 -0.12 -0.3 -0.3 l0 -9.2 c0 -0.18 0.12 -0.3 0.3 -0.3 l1.48 0 c0.18 0 0.28 0.12 0.3 0.3 l0.08 1.32 l0.21 0 c0.58 -0.94 1.65 -1.84 3.3 -1.84 z M78.6805 18.35 c0.11 0.13 0.13 0.28 0.02 0.41 c-0.42 0.52 -1.51 1.4 -3.3 1.4 c-2.05 0 -3.98 -0.76 -3.98 -3.97 l0 -4.18 l-2.48 0 c-0.18 0 -0.3 -0.12 -0.3 -0.3 l0 -1.21 c0 -0.18 0.12 -0.3 0.3 -0.3 l2.48 0 l0 -2.6 c0 -0.18 0.12 -0.3 0.3 -0.3 l1.56 0 c0.18 0 0.3 0.12 0.3 0.3 l0 2.6 l3.95 0 c0.18 0 0.3 0.12 0.3 0.3 l0 1.21 c0 0.18 -0.12 0.3 -0.3 0.3 l-3.95 0 l0 3.95 c0 1.87 1.08 2.26 2.19 2.26 c0.83 0 1.43 -0.36 1.82 -0.67 c0.14 -0.13 0.3 -0.12 0.42 0.02 z M97.414 9.98 c2.16 0 3.75 1.32 3.75 3.81 c0 0.19 -0.1 0.3 -0.29 0.32 l-1.56 0.22 c-0.19 0.03 -0.3 -0.08 -0.32 -0.27 c-0.09 -1.46 -0.99 -2.07 -2.27 -2.07 c-2.02 0 -2.96 1.69 -2.96 2.29 l0 5.42 c0 0.18 -0.12 0.3 -0.3 0.3 l-1.56 0 c-0.18 0 -0.3 -0.12 -0.3 -0.3 l0 -9.2 c0 -0.18 0.12 -0.3 0.3 -0.3 l1.48 0 c0.18 0 0.28 0.12 0.3 0.3 l0.08 1.32 l0.22 0 c0.64 -0.94 1.83 -1.84 3.43 -1.84 z M118.9375 20.26 c-2.85 0 -5.15 -2.26 -5.15 -5.14 c0 -2.87 2.3 -5.14 5.15 -5.14 c2.84 0 5.14 2.27 5.14 5.14 c0 2.88 -2.3 5.14 -5.14 5.14 z M118.9375 18.25 c1.72 0 3.05 -1.4 3.05 -3.13 c0 -1.72 -1.33 -3.14 -3.05 -3.14 c-1.73 0 -3.06 1.42 -3.06 3.14 c0 1.73 1.33 3.13 3.06 3.13 z M145.811 18.19 c0.18 0 0.3 0.12 0.3 0.3 l0 1.21 c0 0.18 -0.12 0.3 -0.3 0.3 l-8.71 0 c-0.18 0 -0.3 -0.12 -0.3 -0.3 l0 -1.21 c0 -0.18 0.12 -0.3 0.3 -0.3 l3.49 0 l0 -10.38 l-3.26 0 c-0.18 0 -0.3 -0.12 -0.3 -0.3 l0 -1.21 c0 -0.18 0.12 -0.3 0.3 -0.3 l5.12 0 c0.18 0 0.3 0.12 0.3 0.3 l0 11.89 l3.06 0 z M168.5445 18.21 c0.25 0.06 0.36 0.14 0.36 0.35 l0 1.19 c0 0.23 -0.22 0.32 -0.57 0.33 c-1.45 0.03 -2.13 -0.5 -2.13 -1.64 l-0.09 0 c-1.02 1.16 -2.74 1.8 -4.15 1.8 c-2.19 0 -3.33 -1.09 -3.33 -2.79 c0 -1.77 1.13 -2.67 3.36 -3 l2.33 -0.36 c0.83 -0.13 1.27 -0.24 1.39 -0.47 c-0.05 -1.36 -0.83 -1.8 -2.12 -1.8 c-1.27 0 -2.19 0.34 -2.34 1.35 c-0.02 0.14 -0.11 0.22 -0.29 0.22 l-1.49 0 c-0.18 0 -0.31 -0.1 -0.29 -0.3 c0.24 -2.33 1.98 -3.11 4.43 -3.11 c2.84 0 4.2 1.33 4.2 3.74 l0 3.67 c0 0.44 0.23 0.72 0.73 0.82 z M162.3745 18.39 c1.11 0 2.28 -0.25 3.34 -1.31 l0 -2.01 c-0.11 0.23 -0.5 0.34 -1.25 0.46 l-2.1 0.33 c-1.18 0.19 -1.57 0.66 -1.57 1.32 c0 0.73 0.48 1.21 1.58 1.21 z M190.988 6 c0.18 0 0.3 0.12 0.3 0.3 l0 13.4 c0 0.18 -0.12 0.3 -0.3 0.3 l-1.41 0 c-0.18 0 -0.28 -0.12 -0.3 -0.3 l-0.07 -0.92 c-0.74 0.87 -1.81 1.48 -3.27 1.48 c-2.8 0 -4.56 -2.24 -4.56 -5.14 s1.71 -5.14 4.56 -5.14 c1.58 0 2.52 0.75 3 1.66 l0.19 0 l0 -5.34 c0 -0.18 0.12 -0.3 0.3 -0.3 l1.56 0 z M186.358 18.28 c1.77 0 2.87 -1.3 2.87 -3.18 s-1.1 -3.14 -2.87 -3.14 c-1.81 0 -2.89 1.26 -2.89 3.14 s1.08 3.18 2.89 3.18 z M209.5115 20.26 c-2.85 0 -5.15 -2.26 -5.15 -5.14 c0 -2.87 2.3 -5.14 5.15 -5.14 c2.84 0 5.14 2.27 5.14 5.14 c0 2.88 -2.3 5.14 -5.14 5.14 z M209.5115 18.25 c1.72 0 3.05 -1.4 3.05 -3.13 c0 -1.72 -1.33 -3.14 -3.05 -3.14 c-1.73 0 -3.06 1.42 -3.06 3.14 c0 1.73 1.33 3.13 3.06 3.13 z"></path></g></svg>
